<?xml version="1.0" encoding="UTF-8"?>
<svg xmlns="http://www.w3.org/2000/svg" viewBox="265 85 348 444"><path fill="#E8821D" fill-rule="evenodd" d="M412.928 85.53c-63.064 9.832-115.375 48.733-142.496 105.97-17.706 37.366-22.455 79.128-13.806 121.389 3.281 16.028 14.965 43.218 25.044 58.276 25.561 38.188 58.903 63.227 103.83 77.973 19.609 6.436 48.96 9.786 68.907 7.865 12.288-1.183 31.425-4.726 39.593-7.33 43.861-13.982 81.657-43.28 105.545-81.813 14.141-22.81 24.038-50.67 26.535-74.696 1.7-16.361.67-45.91-2.04-58.502-11.202-52.051-42.378-96.02-87.791-123.816-18.122-11.092-45.234-20.398-72.28-24.811-14.621-2.386-37.524-2.612-51.041-.505m14.572 6.448c-17.556 1.26-29.932 3.719-46 9.139-18.553 6.258-33.177 13.65-47.481 24.002-15.925 11.524-23.28 18.982-25.966 26.33-2.845 7.784-6.605 23.018-8.158 33.051-1.847 11.926-1.57 43.84.484 56 7.346 43.471 29.554 77.84 60.322 93.353 12.09 6.095 19.874 7.638 38.299 7.589 12.503-.033 18.075-.469 23-1.801 35.011-9.471 55.733-26.467 70.273-57.641 5.302-11.367 7.203-13.796 11.437-14.614 2.686-.519 3.706-.124 6.25 2.42 3.886 3.886 3.968 7.982.528 26.31-3.75 19.98-6.78 28.27-12.289 33.625-5.64 5.481-30.903 18.2-46.699 23.512-49.273 16.568-102.263 11.212-139.821-14.132-14.183-9.571-29.888-27.733-38.151-44.121-3.516-6.972-7.267-18.678-9.646-30.097-1.192-5.722-2.514-10.792-2.938-11.267-1.111-1.244-2.408 9.562-2.229 18.573.33 16.58 5.667 43.858 11.796 60.299 11.217 30.085 24.839 50.188 49.491 73.038 8.102 7.511 24.584 19.201 25.615 18.17.349-.349.128-6.855-.491-14.458-1.747-21.449-1.585-24.559 1.463-28.181 3.441-4.09 7.235-4.099 11.306-.028 2.229 2.229 3.895 5.793 6.193 13.25 5.441 17.661 11.231 27.052 24.31 39.433 15.092 14.285 25.234 17.146 56.602 15.966 35.31-1.329 67.657-11.259 93.517-28.709 8.226-5.552 10.111-8.175 16.571-23.069 7.962-18.358 11.91-39.896 11.901-64.92-.014-37.753-8.305-66.926-26.004-91.5-15.819-21.963-35.169-34.932-58.485-39.198-22.104-4.045-53.261 2.633-72.155 15.464-16.497 11.203-24.849 20.863-34.855 40.314-4.125 8.02-8.596 15.611-9.936 16.869-2.156 2.026-2.807 2.159-5.68 1.157-7.89-2.75-8.755-6.121-5.969-23.259 2.305-14.185 6.017-26.973 9.945-34.268 3.043-5.65 7.093-8.539 23.719-16.917 21.926-11.049 41.778-17.292 62.834-19.759 13.028-1.527 43.542-.607 53.597 1.616 28.213 6.238 48.357 16.951 66.085 35.144 5.272 5.41 11.434 12.587 13.694 15.949 15.621 23.24 23.807 53.832 23.029 86.062-.162 6.695.009 12.476.379 12.847 1.848 1.848 6.804-12.416 9.214-26.521 8.706-50.944-.862-97.278-28.526-138.137-14.362-21.212-35.777-40.879-60.24-55.322-4.326-2.554-8.09-4.419-8.364-4.145s.03 6.934.676 14.801c.647 7.867 1.434 19.099 1.751 24.961.567 10.486.535 10.7-2.015 13.25-1.92 1.919-3.623 2.592-6.565 2.592-5.23 0-7.365-2.743-10.733-13.784-5.475-17.949-11.649-28.389-23.523-39.776-7.351-7.05-17.538-14.754-23.535-17.8-4.072-2.068-13.948-2.658-27.827-1.662"></path></svg>