<?xml version="1.0" standalone="no"?>

<svg xmlns="http://www.w3.org/2000/svg" width="2396" height="608" viewBox="0 0 2396 608"><path fill-rule="evenodd" d="M0 304v304.001l1198.25-.251 1198.25-.25.252-303.75.251-303.75H0zm.494.5c0 167.2.115 235.749.256 152.331s.141-220.218 0-304S.494 137.3.494 304.5M412.928 85.53c-63.064 9.832-115.375 48.733-142.496 105.97-17.706 37.366-22.455 79.128-13.806 121.389 3.281 16.028 14.965 43.218 25.044 58.276 25.561 38.188 58.903 63.227 103.83 77.973 19.609 6.436 48.96 9.786 68.907 7.865 12.288-1.183 31.425-4.726 39.593-7.33 43.861-13.982 81.657-43.28 105.545-81.813 14.141-22.81 24.038-50.67 26.535-74.696 1.7-16.361.67-45.91-2.04-58.502-11.202-52.051-42.378-96.02-87.791-123.816-18.122-11.092-45.234-20.398-72.28-24.811-14.621-2.386-37.524-2.612-51.041-.505m14.572 6.448c-17.556 1.26-29.932 3.719-46 9.139-18.553 6.258-33.177 13.65-47.481 24.002-15.925 11.524-23.28 18.982-25.966 26.33-2.845 7.784-6.605 23.018-8.158 33.051-1.847 11.926-1.57 43.84.484 56 7.346 43.471 29.554 77.84 60.322 93.353 12.09 6.095 19.874 7.638 38.299 7.589 12.503-.033 18.075-.469 23-1.801 35.011-9.471 55.733-26.467 70.273-57.641 5.302-11.367 7.203-13.796 11.437-14.614 2.686-.519 3.706-.124 6.25 2.42 3.886 3.886 3.968 7.982.528 26.31-3.75 19.98-6.78 28.27-12.289 33.625-5.64 5.481-30.903 18.2-46.699 23.512-49.273 16.568-102.263 11.212-139.821-14.132-14.183-9.571-29.888-27.733-38.151-44.121-3.516-6.972-7.267-18.678-9.646-30.097-1.192-5.722-2.514-10.792-2.938-11.267-1.111-1.244-2.408 9.562-2.229 18.573.33 16.58 5.667 43.858 11.796 60.299 11.217 30.085 24.839 50.188 49.491 73.038 8.102 7.511 24.584 19.201 25.615 18.17.349-.349.128-6.855-.491-14.458-1.747-21.449-1.585-24.559 1.463-28.181 3.441-4.09 7.235-4.099 11.306-.028 2.229 2.229 3.895 5.793 6.193 13.25 5.441 17.661 11.231 27.052 24.31 39.433 15.092 14.285 25.234 17.146 56.602 15.966 35.31-1.329 67.657-11.259 93.517-28.709 8.226-5.552 10.111-8.175 16.571-23.069 7.962-18.358 11.91-39.896 11.901-64.92-.014-37.753-8.305-66.926-26.004-91.5-15.819-21.963-35.169-34.932-58.485-39.198-22.104-4.045-53.261 2.633-72.155 15.464-16.497 11.203-24.849 20.863-34.855 40.314-4.125 8.02-8.596 15.611-9.936 16.869-2.156 2.026-2.807 2.159-5.68 1.157-7.89-2.75-8.755-6.121-5.969-23.259 2.305-14.185 6.017-26.973 9.945-34.268 3.043-5.65 7.093-8.539 23.719-16.917 21.926-11.049 41.778-17.292 62.834-19.759 13.028-1.527 43.542-.607 53.597 1.616 28.213 6.238 48.357 16.951 66.085 35.144 5.272 5.41 11.434 12.587 13.694 15.949 15.621 23.24 23.807 53.832 23.029 86.062-.162 6.695.009 12.476.379 12.847 1.848 1.848 6.804-12.416 9.214-26.521 8.706-50.944-.862-97.278-28.526-138.137-14.362-21.212-35.777-40.879-60.24-55.322-4.326-2.554-8.09-4.419-8.364-4.145s.03 6.934.676 14.801c.647 7.867 1.434 19.099 1.751 24.961.567 10.486.535 10.7-2.015 13.25-1.92 1.919-3.623 2.592-6.565 2.592-5.23 0-7.365-2.743-10.733-13.784-5.475-17.949-11.649-28.389-23.523-39.776-7.351-7.05-17.538-14.754-23.535-17.8-4.072-2.068-13.948-2.658-27.827-1.662m292 130.059c-11.762 2.83-21.549 9.124-28.444 18.293-10.368 13.787-11.837 36.844-3.419 53.671 4.575 9.145 11.662 15.566 21.444 19.429 6.709 2.65 8.519 2.928 18.919 2.902 12.13-.03 18.303-1.312 28.99-6.017 8.764-3.859 12.187-8.263 8.682-11.172-1.508-1.252-4.755-.522-11.672 2.622-11.914 5.416-26.786 5.584-37.274.421-13.763-6.776-20.542-20.189-19.504-38.595.814-14.436 7.493-25.273 18.772-30.455 7.378-3.389 20.422-4.155 27.987-1.642 8.007 2.659 11.273 6.138 14.083 14.999 1.999 6.306 2.733 7.536 4.353 7.296 2.656-.394 3.535-4.287 3.664-16.233.127-11.693.174-11.629-10.449-14.125-8.293-1.947-30.301-2.797-36.132-1.394m84.398 1.265c-6.55 2.233-15.993 8.007-19.752 12.079-3.332 3.609-8.971 14.827-10.597 21.079-4.383 16.862.51 38.417 11.113 48.956 12.337 12.261 38.325 15.229 55.778 6.37 5.551-2.818 7.47-4.424 13.451-11.259 4.132-4.721 5.671-7.538 7.729-14.139 2.357-7.559 2.542-9.432 2.221-22.566-.32-13.086-.58-14.8-3.023-19.856-3.337-6.911-11.491-15.172-18.204-18.445-10.471-5.105-27.403-6.075-38.716-2.219m111.028-1.115c-29.583 2.684-47.199 27.348-42.007 58.813 1.807 10.953 4.812 16.996 11.981 24.096 7.598 7.525 13.902 10.471 25.918 12.113 19.913 2.722 52.421-9.57 44.982-17.009-1.832-1.832-4.852-1.447-9.956 1.27-6.389 3.401-18.858 5.856-26.648 5.246-11.698-.917-22.82-8.332-28.228-18.818-2.776-5.383-4.324-16.132-3.626-25.182.997-12.929 7.236-23.441 16.783-28.279 8.455-4.285 21.902-4.893 32.297-1.463 4.437 1.465 8.21 5.905 9.618 11.321 2.484 9.554 2.257 9.205 5.984 9.205h3.476l.884-10.22c1.389-16.054-.395-18.109-17.525-20.194-12.591-1.532-15.677-1.648-23.933-.899m244.689 1.278c-.888 1.355-1.615 2.869-1.615 3.362 0 1.041-4.348 11.581-8.941 21.673-4.35 9.557-3.985 8.734-13.018 29.37-4.422 10.103-8.041 18.55-8.041 18.771 0 1.891-6.19 8.972-9.581 10.959-4.361 2.556-6.134 5.085-4.624 6.595.473.473 7.575.735 15.783.583 14.128-.263 14.922-.384 14.922-2.265 0-1.248-1.115-2.475-3-3.301-5.163-2.265-5.818-2.768-6.101-4.697-.263-1.796 1.174-5.46 2.555-6.515.361-.275 1.564-2.75 2.674-5.5l2.019-5 16.426-.286c9.035-.157 17.339-.061 18.454.214 1.338.329 3.122 2.891 5.25 7.54 4.387 9.586 4.26 10.689-1.527 13.23-5.397 2.37-6.598 3.678-5.07 5.518 1.323 1.595 36.34 1.869 37.314.293.88-1.423-2.556-5.751-5.494-6.921-3.747-1.492-5.511-3.216-7.25-7.088l-8.752-19.5-11-24.5c-2.101-4.675-5.238-12.1-6.972-16.5s-3.573-8.428-4.089-8.95c-.515-.522-.937-1.78-.937-2.795 0-2.182-4.292-6.755-6.34-6.755-.786 0-2.157 1.109-3.045 2.465m78.631-1.002c-5.905 1.844-14.031 8.262-16.471 13.008-2.881 5.605-3.527 15.425-1.319 20.077 2.65 5.584 8.657 10.936 16.196 14.429 14.34 6.644 19.494 9.437 22.989 12.459 3.077 2.659 3.684 3.889 4.111 8.33.65 6.771-.867 10.213-5.955 13.513-6.888 4.466-9.997 5.096-16.22 3.286-7.678-2.232-11.227-5.552-13.204-12.352-1.889-6.501-3.281-8.213-6.677-8.213-2.993 0-3.696 2.686-3.696 14.125 0 6.489.345 8.22 1.961 9.836 3.268 3.268 12.497 5.362 24.039 5.455 9.503.076 11.07-.182 16.5-2.717 14.107-6.585 19.954-18.067 16.396-32.198-1.93-7.664-6.414-11.603-22.862-20.082-17.554-9.05-21.534-12.518-21.534-18.769 0-8.158 6.067-13.019 16.174-12.959 7.692.045 13.626 3.808 15.726 9.971.88 2.582 1.6 5.484 1.6 6.449 0 2.246 3.329 3.318 5.948 1.917 1.879-1.006 1.991-1.815 1.562-11.301-.537-11.897-.531-11.889-10.576-14.174-8.214-1.868-18.872-1.907-24.688-.09m350.129.028c-14.454 3.144-25.827 11.505-31.882 23.439-4.815 9.491-6.475 15.82-6.446 24.57.064 19.296 8.456 35.614 21.822 42.433 13.356 6.814 34.199 6.509 47.432-.693 6.126-3.335 13.65-10.578 17.015-16.382 4.529-7.811 6.02-15.112 6.1-29.858.072-13.354.036-13.579-3.36-20.837-5.559-11.882-15.896-19.54-30.573-22.649-8.38-1.775-12.032-1.779-20.108-.023m430.855.008c-7.669 2.139-10.438 3.827-15.473 9.426-6.523 7.256-8.154 14.618-5.175 23.363 2.354 6.908 7.206 10.853 22.845 18.576 17.995 8.887 19.13 9.799 20.652 16.596 1.963 8.773-1.03 13.605-10.802 17.44-6.084 2.387-11.765 1.816-17.563-1.768-4.422-2.733-6.27-5.545-7.179-10.924-.871-5.156-2.926-7.418-6.371-7.012-3.04.358-3.923 2.71-4.053 10.804-.173 10.72.569 12.616 5.824 14.877 9.377 4.034 22.031 5.064 31.595 2.573 13.046-3.398 21.282-12.245 22.215-23.862 1.185-14.757-3.465-20.639-24.499-30.995-14.286-7.034-17.479-9.253-19.841-13.793-5.248-10.087 7.36-20.364 20.607-16.797 6.047 1.629 10.662 6.637 11.546 12.532.726 4.847 3.065 7.037 6.387 5.982 2.72-.863 3-2.36 2.342-12.519-.682-10.518-.989-10.908-10.571-13.401-9.133-2.377-16.596-2.741-22.486-1.098m-1041.044.25-16.314.301.314 2.725c.276 2.394 1.104 2.98 6.814 4.821l6.5 2.097.263 35.84c.177 24.172-.081 36.185-.794 36.898-.58.58-3.624 1.736-6.762 2.568-5.014 1.328-5.707 1.815-5.707 4.006v2.495l20.75.27 20.75.271v-2.492c0-2.215-.775-2.727-7-4.618l-7-2.126v-73.632l6.205-1.337c5.265-1.135 6.3-1.717 6.832-3.837 1.018-4.054.129-5.02-4.394-4.776-2.279.123-11.484.36-20.457.526m35.064.071c-1.635.232-2.25.99-2.25 2.771 0 2.799 1.529 3.613 10.5 5.588l6 1.321-.277 35.367c-.155 19.711-.696 36.149-1.223 37.133-.52.972-2.487 2.056-4.371 2.41-4.338.814-8.723 4.182-7.977 6.127.465 1.211 3.734 1.463 18.955 1.463H1051v-2.428c0-2.029-.91-2.769-5.538-4.5-3.045-1.14-5.922-2.072-6.393-2.072-.47 0-1.128-.712-1.462-1.582-.883-2.302-.746-59.419.143-59.414.412.002 2.981 2.814 5.708 6.25s8.666 10.746 13.198 16.246c13.141 15.948 19.215 23.371 29.235 35.73 9.336 11.516 13.316 15.011 15.029 13.2.68-.72 1.742-42.452 2.05-80.597.029-3.602.122-3.687 5.212-4.779 2.85-.611 5.775-1.603 6.5-2.205 1.672-1.388 1.718-5.497.068-6.065-.687-.237-9.013-.233-18.5.008-17.12.435-17.25.456-17.25 2.701 0 2.966 1.579 4.129 6.77 4.985 7.445 1.228 7.236.316 7.18 31.343l-.051 27.679-2.922-3.5c-8.965-10.735-30.57-37.193-39.347-48.186-5.572-6.977-11.03-13.14-12.13-13.696-1.939-.98-20.701-1.945-25.25-1.298m482.438.611c-15.992 4.63-27.582 15.191-32.536 29.65-6.09 17.77-1.413 41.415 10.406 52.615 11.72 11.104 31.814 14.932 50.442 9.608 12.965-3.706 21-8.645 21-12.911 0-3.557-3.088-3.696-11.114-.501-25.409 10.115-45.495 4.332-54.758-15.766-9.642-20.917-.521-48.071 17.994-53.57 6.036-1.792 19.582-2.044 25.255-.468 6.307 1.751 11.372 7.334 13.471 14.849 1.981 7.091 4.197 9.474 6.554 7.046.973-1.002 1.665-5.051 2.132-12.483.836-13.317.15-14.613-9.034-17.046-8.41-2.229-33.426-2.871-39.812-1.023m196.485-.365c-10.445 1.37-15.801 3.651-25.465 10.842-6.142 4.572-10.992 11.757-13.898 20.592-1.839 5.591-2.29 9.114-2.24 17.5.159 26.856 13.886 43.044 39.21 46.24 10.739 1.356 20.1-.125 32.733-5.178 9.422-3.769 12.701-6.445 12.282-10.029-.415-3.559-3.778-3.762-10.718-.648-18.719 8.401-35.189 6.922-47.278-4.244-6.529-6.03-9.228-11.199-10.918-20.906-3.311-19.009 3.486-35.352 17.589-42.295 6.255-3.079 6.707-3.15 17.799-2.798 10.468.332 11.72.585 15.595 3.15 5.146 3.405 8.122 8.047 8.148 12.708.024 4.563.928 5.838 4.666 6.586 4.164.832 4.69-.338 4.959-11.04.294-11.654-.294-14.32-3.521-15.975-6.947-3.563-27.766-5.972-38.943-4.505m246.995.684c-1.13.963-3.597 5.575-5.484 10.25-6.892 17.075-26.775 62.192-29.666 67.314-2.261 4.007-4.068 5.798-7.562 7.495-3.678 1.787-4.527 2.673-4.273 4.461.312 2.194.562 2.23 15.317 2.23h15v-2.468c0-1.957-.724-2.681-3.5-3.5-6.601-1.946-6.755-2.851-2.089-12.234 1.149-2.311 2.089-4.641 2.089-5.178 0-.538.707-1.684 1.571-2.549 1.308-1.307 4.481-1.571 18.909-1.571h17.336l3.514 6.392c1.932 3.515 3.661 7.903 3.842 9.75.314 3.218.132 3.417-4.378 4.771-4.819 1.448-6.176 2.927-5.147 5.609.499 1.3 3.235 1.482 18.718 1.25 17.603-.264 18.144-.334 18.437-2.387.234-1.639-.668-2.572-4-4.141-5.462-2.571-6.912-4.244-10.607-12.244a8625 8625 0 0 0-7.099-15.309c-2.253-4.845-4.096-9.013-4.096-9.261 0-.249-.88-2.359-1.955-4.691s-5.532-12.465-9.905-22.519c-8.062-18.538-10.492-23.22-12.052-23.22-.477 0-1.791.787-2.92 1.75m-182.459-.002c-13.75.246-16.894.57-17.362 1.789-.915 2.386 1.373 4.198 6.953 5.507 8.989 2.109 8.212-1.555 8.102 38.208-.055 19.496-.411 35.954-.793 36.571-.381.617-2.587 1.6-4.901 2.184-7.236 1.825-8.708 2.75-8.708 5.472 0 2.075.487 2.527 2.75 2.557 20.353.269 38.447.1 38.909-.362.32-.32.302-1.695-.04-3.057-.517-2.06-1.555-2.67-6.176-3.629-4.58-.951-5.736-1.621-6.585-3.821-1.035-2.683-.37-70.53.709-72.276.283-.458 2.785-1.134 5.559-1.502 3.928-.521 5.276-1.178 6.091-2.965 1.692-3.715.375-5.455-3.936-5.2-2.079.123-11.337.359-20.572.524m35.041-.085c-1.847.315-2.75 1.081-2.75 2.332 0 3.015 2.501 4.667 8.06 5.326 9.738 1.153 9.202-.666 9.049 30.716-.074 15.104-.418 31.207-.765 35.784-.701 9.249-1.529 10.374-8.538 11.601-3.739.656-6.012 3.772-4.125 5.659 1.333 1.333 34.146 1.783 35.781.49 2.694-2.13.053-5.279-5.873-7.002-3.047-.886-5.941-2.389-6.43-3.34-1.297-2.522-1.519-59.229-.232-59.229.565 0 2.875 2.363 5.133 5.25s4.857 6.151 5.774 7.253 3.229 4.027 5.14 6.5 7.118 8.772 11.572 13.997c4.455 5.225 12.74 15.35 18.411 22.5 10.638 13.409 15.292 17.651 17.236 15.707 1.253-1.253 1.832-19.547 1.817-57.438l-.01-26.731 2.75-.598c7.976-1.734 10.759-3 11.048-5.028.547-3.828-1.432-4.188-20.101-3.649l-17.803.513.303 2.555c.26 2.192 1.086 2.751 5.803 3.928 3.025.754 6.011 1.905 6.635 2.556 1.338 1.398 2.633 55.401 1.347 56.196-.444.275-3.853-3.44-7.574-8.256-3.721-4.815-8.598-10.81-10.837-13.321-2.239-2.512-7.446-8.747-11.571-13.857s-8.625-10.679-10-12.376c-1.375-1.698-5.344-6.375-8.819-10.394l-6.319-7.307-5.681-.009c-3.125-.004-7.931-.186-10.681-.404-2.75-.217-6.237-.183-7.75.076m292.157 1.664c-2.424 1.279-5.726 4.199-7.338 6.488-2.622 3.722-2.917 4.91-2.8 11.264.159 8.571 2.486 12.306 10.544 16.927 6.009 3.447 10.421 3.752 16.209 1.123 11.973-5.439 17.116-18.876 10.614-27.729-5.905-8.04-10-10.4-18.044-10.4-3.072 0-6.351.831-9.185 2.327m4.008 4.015c-4.61 4.063-7.915 9.862-7.915 13.888 0 2.93.777 4.589 3.5 7.476 1.925 2.041 3.5 4.047 3.5 4.457 0 1.124 6.646 2.143 9.427 1.445 1.342-.337 2.734-1.539 3.093-2.671.359-1.133 1.69-2.531 2.956-3.108 4.726-2.153 5.933-9.814 2.437-15.47-2.242-3.627-9.375-8.379-12.501-8.327-1.052.017-3.075 1.056-4.497 2.31M810 230.526c-8.457 2.327-12.95 5.976-17.138 13.92-9.608 18.224-6.72 44.318 6.196 55.987 6.69 6.045 13.882 8.873 21.275 8.368 7.257-.497 16.544-4.677 20.296-9.136 5.708-6.784 9.371-19.142 9.371-31.616 0-26.982-17.76-43.642-40-37.523m538.287.052c-4.595 2.34-12.288 10.876-12.283 13.629.002 1.261.902 3.766 2 5.567 2.758 4.524 2.56 5.421-1.939 8.784-5.788 4.327-8.566 10.933-8.561 20.361.005 10.782 1.927 16.51 7.43 22.145 7.179 7.349 13.503 9.345 29.647 9.357 12.914.01 13.167-.033 19.696-3.382l6.615-3.393 6.766 3.427c5.69 2.882 7.733 3.403 12.843 3.279 8.186-.2 13.754-2.533 13.321-5.581-.278-1.958-1.355-2.489-7.822-3.852-10.218-2.154-11.091-2.542-7.5-3.333 6.933-1.525 8.043-2.184 9.83-5.837 1.229-2.51 1.614-4.729 1.171-6.745-.84-3.822-1.925-3.809-3.521.043-1.277 3.083-4.265 5.142-9.169 6.316-3.746.898-4.2-.514-2.284-7.104 3.261-11.218 1.453-19.212-6.041-26.707-4.643-4.643-13.172-7.262-18.475-5.673-8.21 2.459-12.351 6.892-13.541 14.493l-.606 3.872-3.07-2.872c-1.688-1.58-6.391-7.304-10.452-12.721-5.667-7.56-7.302-10.466-7.034-12.5.308-2.331.857-2.688 4.552-2.96 2.9-.213 5.935.484 9.792 2.25 6.91 3.163 8.152 3.188 8.907.18 1.243-4.951.126-8.032-3.559-9.817-5.409-2.622-12.895-3.171-16.713-1.226m238.622.976c-9.416 2.9-17.399 12.753-19.808 24.446-2.056 9.976-2.155 13.303-.655 21.993 2.044 11.85 5.307 18.783 11.228 23.86 7.301 6.26 10.617 7.514 19.927 7.532 7.408.014 8.519-.255 13-3.149 9.95-6.426 13.76-12.19 16.923-25.602 1.879-7.966 1.844-13.11-.149-21.937-4.258-18.864-14.998-28.845-30.807-28.627-2.787.038-7.134.706-9.659 1.484m500.379 2.653c-1.3 1.635-2.301 14.155-1.265 15.83 1.027 1.662 3.506.624 5.337-2.233 2.003-3.127.908-14.133-1.452-14.585-.876-.168-2.054.277-2.62.988m7.369 3.276c-.978 7.135 1.309 14.517 4.498 14.517 1.347 0 1.019-16.426-.355-17.8-2.237-2.237-3.526-1.215-4.143 3.283m-935.802 11.293c-6.26 14.172-10.855 25.747-10.855 27.346 0 1.745.958 1.878 13.5 1.878 11.087 0 13.5-.258 13.5-1.441 0-.792-1.8-5.265-4-9.939s-4-8.981-4-9.573c0-.591-.439-1.856-.975-2.811s-1.638-3.423-2.449-5.486-1.834-3.738-2.275-3.724-1.541 1.701-2.446 3.75m778.624-.38c-.813 1.947-1.479 3.784-1.479 4.083 0 .52-1.346 3.602-6.712 15.368-1.341 2.94-2.517 6.54-2.613 8l-.175 2.653 12.77.28c10.157.223 12.879-.004 13.302-1.107.293-.762-.65-4.038-2.095-7.28-4.753-10.665-5.236-11.834-7.512-18.174-1.241-3.454-2.649-6.524-3.131-6.822-.482-.297-1.541 1.052-2.355 2.999m-559.369 11c-3.121 1.729-7.098 8.364-7.105 11.851-.007 3.818 5.811 9.96 14.098 14.883 8.562 5.087 10.765 4.897 13.068-1.13 4.357-11.398-.082-21.587-11.096-25.474-5.186-1.829-5.882-1.839-8.965-.13m-39.501 6.624c-2.158 5.393-2.027 14.462.281 19.545 4.82 10.611 14.573 16.37 29.129 17.2 8.334.476 15.981-.829 15.981-2.725 0-.443-3.037-2.766-6.75-5.162-7.062-4.559-21.91-18.836-28.75-27.646-5.074-6.534-7.636-6.848-9.891-1.212m93.49 86.562c-5.516 6.036-7.262 10.067-4.984 11.51 2.65 1.678 4.301.875 9.575-4.657 5.674-5.954 7.522-10.053 5.195-11.527-2.776-1.758-4.784-.799-9.786 4.674M1237.5 367.921c-8.708 2.134-15.179 7.727-17.359 15.001-2.02 6.742-1.455 18.159 1.146 23.171 2.909 5.605 10.643 9.907 17.809 9.907 4.908 0 13.007-2.896 16.284-5.821 6.035-5.39 8.763-15.069 7.195-25.526-1.563-10.422-14.796-19.252-25.075-16.732m638.223.571c-5.609 1.424-10.762 5.225-13.878 10.237-2.071 3.331-2.345 4.995-2.345 14.271 0 8.762.337 11.074 2.037 13.967 2.67 4.545 11.136 9.033 17.04 9.033 4.963 0 15.036-3.387 17.746-5.967 1.949-1.854 2.703-10.481 1.291-14.761-.931-2.822-6.401-4.531-13.114-4.096-4.534.294-5.028.565-5.301 2.91-.372 3.205 1.281 4.653 5.805 5.082 4.335.412 5.232 3.596 1.941 6.887-1.831 1.831-2.983 2.1-7.252 1.69-6.034-.58-9.924-4.175-11.715-10.826-2.245-8.338 2.462-18.978 9.035-20.422 1.502-.33 5.702.089 9.332.931 7.784 1.805 9.884 1.315 9.459-2.207-.649-5.384-11.309-8.957-20.081-6.729M977 368.699c-15.641.492-14-2.245-14 23.351 0 20.042.157 22.073 1.75 22.686.962.37 7.6.693 14.75.718l13 .046v-8L982 407l-10.5-.5v-11l9.74-.286c9.492-.279 9.756-.351 10.377-2.823.999-3.98-.879-4.86-11.165-5.238l-9.452-.346V377h9.918c11.449 0 13.088-.421 13.067-3.357-.035-4.79-2.162-5.409-16.985-4.944m208.142 1.395c-5.05 2.574-9.671 8.449-11.256 14.31-.609 2.253-.904 7.246-.655 11.096.903 13.967 6.914 19.886 20.269 19.961 11.894.066 20.071-4.512 17.347-9.711-1.183-2.257-2.416-2.206-10.462.435-6.628 2.176-6.672 2.177-10.24.25-9.439-5.098-11.157-18.548-3.406-26.673 2.782-2.916 7.746-4.378 11.174-3.29 1.592.506 2.087 1.492 2.087 4.161 0 4.66 1.58 7.37 4.285 7.352 3.408-.024 4.733-1.321 5.372-5.26 1.601-9.867-2.023-13.702-13.649-14.439-5.295-.336-7.32.001-10.866 1.808m94.358-1.414c-5.518.914-5.5.834-5.5 24.369 0 23.749-.146 23.184 5.705 22.132 1.745-.314 2.342-1.31 2.862-4.777.361-2.409.383-5.093.048-5.964-.919-2.397 1.166-5.44 3.729-5.44 3.285 0 5.536 1.985 9.065 7.995 3.93 6.694 7.506 9.494 11.004 8.616 4.45-1.117 3.328-5.404-3.387-12.948-4.11-4.618-4.183-5.953-.614-11.291 4.525-6.767 4.921-9.052 2.453-14.151-2.664-5.504-8.032-8.383-16.336-8.762-3.316-.151-7.379-.052-9.029.221m54.216.57c-1.715 1.287-10.244 20.382-15.129 33.87-3.294 9.093-3.199 12.504.336 12.112 3.485-.387 5.102-2.058 7.726-7.982l2.326-5.25h14.837l1.59 4.667c2.132 6.257 4.188 8.333 8.253 8.333 2.88 0 3.345-.34 3.345-2.44 0-5.867-13.211-38.209-17.078-41.81-3.346-3.115-3.881-3.244-6.206-1.5m129.485.439c-1.147 2.225-2.547 39.085-1.624 42.763.588 2.343 1.092 2.619 4.295 2.351l3.628-.303-.113-14.788c-.08-10.452.213-14.683 1-14.432.612.195 4.619 5.05 8.903 10.788 9.898 13.254 15.915 19.932 17.959 19.932.884 0 2.315-.707 3.18-1.571 1.327-1.328 1.571-4.79 1.571-22.3 0-22.31-.183-23.129-5.181-23.129-3.756 0-4.25 2.419-3.378 16.569.385 6.265.404 11.873.041 12.46-.931 1.507-3.005-.411-7.012-6.486-1.83-2.773-6.625-9.093-10.656-14.043-7.522-9.239-10.822-11.282-12.613-7.811m77.554-.817c-2.61.395-5.207 1.18-5.771 1.744-.653.653-.927 8.79-.754 22.454l.27 21.43 4.859.558c7.064.811 17.331-.686 22.572-3.292 3.209-1.595 5.448-3.723 7.564-7.188 2.736-4.48 3.005-5.705 3.005-13.663 0-8.09-.224-9.066-3.007-13.079-5.213-7.519-16.025-10.891-28.738-8.964m279.745.719c-11.295 6.169-15.384 16.696-12.351 31.798 1.322 6.579 4.295 10.011 11.049 12.753 8.181 3.321 17.047 1.908 23.687-3.775 11.3-9.673 11.237-29.717-.122-38.731-3.28-2.602-4.689-3.009-11.5-3.324-5.834-.27-8.509.048-10.763 1.279m102.77.659c-2.175 2.354-4.051 6.524-12.905 28.674-5.622 14.067-6.312 17.076-3.912 17.076 3.432 0 6.56-2.609 9.695-8.084l3.352-5.857 6.628-.029c7.27-.033 7.942.392 9.818 6.217 1.402 4.352 4.345 6.753 8.277 6.753 2.366 0 2.775-.407 2.763-2.75-.023-4.48-13.576-39.035-16.637-42.416-2.216-2.45-4.559-2.312-7.079.416m38.887-1.314c-1.838.467-3.76 1.267-4.27 1.777-.53.53-.812 10.116-.657 22.357l.27 21.43h8l.292-7.75.292-7.75h3.479c3.018 0 3.905.621 6.708 4.692 7.66 11.13 12.235 14.402 15.529 11.108 1.965-1.965 1.445-3.36-3.8-10.204-2.75-3.588-4.998-7.102-4.996-7.81.003-.707 1.351-3.311 2.996-5.786 5.271-7.929 3.313-16.726-4.555-20.459-4.3-2.041-14.299-2.873-19.288-1.605m-955.699 2.373c-.318 1.271-.664 11.508-.769 22.75l-.189 20.441 3.75.31 3.75.311.027-15.811.027-15.81 2.987 3.5c1.643 1.925 6.918 8.767 11.723 15.205 9.056 12.134 11.633 14.439 14.963 13.382 1.782-.566 2.026-1.894 2.619-14.264 1.409-29.379.886-32.817-4.895-32.159l-2.951.336v15.251c0 8.387-.099 15.25-.219 15.25-.121-.001-4.231-5.314-9.135-11.808-11.789-15.612-15.24-19.193-18.495-19.193-1.896 0-2.772.634-3.193 2.309m72.834-1.526c-1.086.704-1.566 15.204-1.334 40.313l.042 4.595 13.018.623c14.683.702 17.982.018 17.982-3.73 0-1.356-.562-2.83-1.25-3.275s-5.525-1.034-10.75-1.309l-9.5-.5-.3-5.75-.3-5.75h9.015c7.878 0 9.145-.243 10.046-1.928 2.373-4.434-1.022-6.072-12.586-6.072H1087v-10l9.75-.015c5.362-.009 10.349-.395 11.08-.859.756-.479 1.188-2.092 1-3.735l-.33-2.891-14-.25c-7.7-.137-14.544.103-15.208.533m42.179.431c-.281.734-.39 10.999-.242 22.811l.271 21.475 11.407.839c12.873.946 16.093.207 16.093-3.695 0-3.658-1.889-4.526-10.547-4.848l-7.953-.296-.5-18.5-.5-18.5-3.758-.311c-2.449-.202-3.937.155-4.271 1.025m244.729-.014c-1.802 1.802-1.446 4.598.734 5.765 1.064.569 5.789 1.035 10.5 1.035s8.566.391 8.566.869c0 .479-1.744 3.066-3.876 5.75-10.142 12.772-18.124 24.912-18.124 27.567 0 3.367.445 3.487 16.03 4.317 13.796.735 16.97-.082 16.97-4.371 0-3.74-1.149-4.132-12.117-4.132-10.697 0-10.906 1.389 2.466-16.325 5.068-6.714 9.842-13.723 10.61-15.575 1.269-3.065 1.226-3.491-.473-4.734-2.487-1.818-29.491-1.961-31.286-.166m51.599.843c-8.895 4.698-13.751 18.732-10.431 30.151 2.181 7.501 5.503 11.27 11.77 13.352 6.846 2.274 11.45 2.053 18.046-.864 8.95-3.958 13.688-11.858 13.772-22.964.069-9.019-4.111-16.627-11.156-20.307-4.167-2.177-17.402-1.797-22.001.632m166.694.18c-.308 1.253-.432 11.502-.276 22.777l.283 20.5 12 .803c6.6.442 13.463.534 15.25.205 2.781-.512 3.25-1.017 3.25-3.494 0-1.593-.562-3.26-1.25-3.705s-5.525-1.034-10.75-1.309l-9.5-.5-.3-5.75-.3-5.75h8.928c9.552 0 11.92-1.069 10.721-4.844-.784-2.473-3.317-3.125-12.194-3.142l-7.145-.014-.376-3.938c-.206-2.166-.216-4.416-.021-5 .213-.639 3.808-1.067 9.02-1.076 11.974-.019 13.349-.482 12.971-4.367l-.304-3.119-14.724-.277c-14.595-.274-14.729-.256-15.283 2m54.122-.662c-1.07 2.788-.669 5.204.967 5.832.87.334 4.46.607 7.978.607h6.396l.272 18.75.272 18.75 4.25.307 4.25.308V377l5.25-.014c8.391-.021 9.909-.715 9.554-4.367l-.304-3.119-19.135-.271c-16.793-.238-19.21-.075-19.75 1.332m47.382-.057c-3.311 3.989-1.901 33.39 1.845 38.496 2.412 3.286 7.461 5.659 13.736 6.456 9.971 1.266 21.444-5.584 22.919-13.685.328-1.799.462-9.796.299-17.771l-.296-14.5-3.377-.323c-1.858-.177-3.818.118-4.357.657s-1.174 8.084-1.413 16.768c-.455 16.589-.703 17.494-5.481 19.964-4.782 2.473-9.086 1.84-12.676-1.864l-3.196-3.297-.014-13.953c-.016-17.048-.319-18.452-3.98-18.452-1.519 0-3.323.677-4.009 1.504m69.61.078c-.795 2.071-.763 39.235.037 42.219.535 1.999 1.157 2.262 4.736 2l4.12-.301.286-9.75.286-9.75h22.059l-.139 7.25c-.264 13.817-.572 12.907 4.258 12.557l4.25-.307.283-20.5c.156-11.275.028-21.539-.283-22.808-.485-1.974-1.107-2.264-4.284-2l-3.716.308-.289 8.782-.29 8.783-11.21-.283-11.211-.282-.11-5.5c-.258-12.876.054-12-4.283-12-2.627 0-4.09.514-4.5 1.582m-521.206 7.252c-5.683 3.581-8.177 14.98-4.961 22.676 2.893 6.924 11.595 9.318 18.182 5.002 7.201-4.718 8.409-20.376 2.034-26.365-3.41-3.204-11.191-3.874-15.255-1.313m49.212-.567c-1.582 1.179-1.81 2.34-1.41 7.162.521 6.292 1.567 7.532 6.373 7.556 6.007.03 10.444-8.342 6.756-12.75-2.342-2.8-9.084-3.932-11.719-1.968m139.388.485c-4.243 2.12-6.044 5.631-6.722 13.105-.648 7.151 1.388 12.36 5.911 15.117 6.377 3.888 13.449 1.45 17.441-6.013 5.773-10.795-.067-23.958-10.631-23.958-1.375 0-4.074.787-5.999 1.749m120.749-1.169c-1.35 1.351-.891 29.057.5 30.187 1.789 1.453 10.341-.074 13.46-2.403 8.072-6.027 8.378-20.943.524-25.563-3.067-1.804-13.328-3.378-14.484-2.221m280.605.409c-5.365 2.165-10.08 12.993-8.324 19.115 1.176 4.103 4.779 9.721 6.993 10.906 5.907 3.161 13.977-.281 17.357-7.403 2.446-5.156 2.159-14.654-.549-18.096-3.631-4.617-10.365-6.584-15.477-4.522m142.053.143c-.976 1.562-.934 12.204.053 13.803.822 1.329 7.059 1.389 9.484.091.998-.534 2.57-2.859 3.494-5.168 1.662-4.153 1.654-4.223-.762-6.639-2.93-2.929-10.897-4.285-12.269-2.087m-632.297 7.754c-1.454 1.454-2.111 3.373-2.111 6.168v4.058l4.25-.308c4.234-.306 4.25-.321 4.128-4.152-.077-2.394-.884-4.605-2.139-5.861l-2.017-2.016zm588.816 1.802c-.562 1.48-.889 3.843-.725 5.25.261 2.239.829 2.597 4.548 2.866 4.212.305 4.25.278 4.25-3.027 0-6.827-5.979-10.596-8.073-5.089"></path></svg>